<?xml version="1.0" standalone="no"?>
<!DOCTYPE svg PUBLIC "-//W3C//DTD SVG 20010904//EN"
 "http://www.w3.org/TR/2001/REC-SVG-20010904/DTD/svg10.dtd">
<svg version="1.0" xmlns="http://www.w3.org/2000/svg"
 width="882.000000pt" height="882.000000pt" viewBox="0 0 882.000000 882.000000"
 preserveAspectRatio="xMidYMid meet">
<metadata>
Created by potrace 1.14, written by Peter Selinger 2001-2017
</metadata>
<g transform="translate(0.000000,882.000000) scale(0.100000,-0.100000)"
fill="#000000" stroke="none">
<path d="M4103 8083 c-18 -2 -33 -8 -33 -13 0 -4 -11 -11 -25 -14 -46 -12
-100 -72 -145 -163 -50 -100 -55 -105 -128 -133 -66 -25 -84 -37 -262 -184
-150 -124 -212 -181 -228 -213 -46 -88 -148 -435 -162 -554 -19 -154 -18 -151
-41 -138 -12 6 -23 8 -26 5 -8 -8 25 -254 37 -277 6 -9 8 -24 5 -31 -3 -7 -1
-40 4 -73 14 -92 51 -298 56 -315 3 -10 -22 -42 -65 -85 -38 -39 -70 -74 -70
-78 0 -9 -3 -13 -60 -75 -21 -23 -53 -64 -70 -91 -23 -35 -40 -51 -62 -55 -16
-3 -42 -14 -56 -25 -15 -10 -38 -22 -52 -26 -14 -4 -32 -13 -40 -20 -17 -15
-61 -27 -169 -46 -82 -14 -111 -33 -139 -89 -10 -22 -25 -36 -39 -38 -13 -2
-39 -25 -60 -53 -55 -72 -280 -299 -297 -299 -8 0 -23 -11 -33 -24 -10 -13
-29 -26 -41 -30 -12 -4 -22 -12 -22 -18 0 -6 -10 -8 -25 -4 -17 4 -30 1 -43
-11 -10 -10 -30 -25 -45 -33 -67 -34 -174 -162 -229 -272 -26 -52 -34 -83 -70
-248 -6 -30 -15 -63 -20 -72 -4 -10 -10 -30 -13 -45 -3 -15 -15 -71 -27 -123
-21 -89 -22 -117 -22 -425 1 -310 3 -335 24 -410 12 -44 29 -92 36 -107 27
-53 210 -223 282 -263 66 -37 92 -57 92 -71 0 -8 -7 -14 -15 -14 -16 0 -218
-63 -275 -85 -19 -8 -62 -22 -95 -31 -33 -9 -107 -41 -165 -71 -58 -31 -115
-61 -127 -67 -13 -6 -23 -14 -23 -18 0 -5 -6 -8 -14 -8 -8 0 -21 -6 -28 -12
-8 -7 -25 -20 -40 -28 -64 -37 -146 -101 -178 -140 -19 -23 -52 -61 -72 -83
-54 -60 -88 -131 -94 -196 -3 -31 -12 -85 -19 -121 -24 -113 -45 -264 -45
-324 0 -83 27 -118 177 -232 90 -68 279 -170 398 -214 33 -12 79 -31 103 -42
24 -10 58 -21 75 -25 18 -3 37 -10 43 -14 14 -11 141 -52 214 -69 30 -7 105
-25 165 -41 61 -15 135 -32 165 -38 30 -5 114 -25 185 -44 203 -53 270 -66
630 -117 77 -11 190 -27 250 -36 61 -8 137 -19 170 -24 33 -5 103 -11 155 -15
52 -4 102 -8 110 -10 8 -3 143 -12 300 -21 281 -16 1006 -22 1210 -11 52 3
142 8 200 12 58 3 132 7 165 10 33 2 116 7 185 10 159 8 268 20 450 52 80 13
195 31 255 38 61 8 144 21 185 29 132 28 383 87 435 103 28 8 64 17 80 20 17
3 35 9 40 13 6 4 44 19 85 34 122 41 143 49 185 67 22 10 52 21 68 25 15 3 30
10 33 15 3 5 16 9 29 9 13 0 26 4 29 9 3 5 17 12 31 15 34 9 198 85 310 143
17 9 46 29 66 44 20 16 41 29 45 29 26 0 166 141 198 200 27 49 28 74 6 125
-12 28 -30 120 -30 156 0 16 -4 37 -9 47 -28 58 -87 270 -77 279 13 13 -46
108 -106 173 -182 194 -286 244 -938 445 -102 32 -188 61 -193 64 -4 4 1 23
10 42 13 26 17 55 16 121 l-2 88 70 -35 c112 -57 309 -141 374 -159 l59 -18
23 29 c13 15 23 40 23 56 0 20 5 27 20 27 10 0 24 9 30 20 6 11 18 118 26 238
8 119 17 226 19 237 3 13 22 29 50 43 25 12 45 26 45 30 0 5 10 13 21 18 21
10 61 98 79 174 10 45 18 63 58 133 43 74 86 228 78 279 -4 24 -1 51 9 74 35
85 3 189 -112 360 -33 49 -76 114 -95 145 -20 31 -63 92 -96 136 -33 45 -73
116 -91 160 -44 110 -59 138 -98 180 -18 21 -43 52 -54 68 -20 28 -110 105
-123 105 -5 0 -144 79 -176 100 -42 28 -210 68 -374 90 -50 6 -94 14 -99 17
-11 7 -125 32 -180 40 -36 5 -39 9 -77 88 -43 90 -70 111 -120 93 -32 -12 -70
-47 -70 -65 0 -8 -7 -13 -16 -11 -16 3 -53 68 -95 165 -12 29 -35 65 -51 80
l-29 28 -36 -20 c-25 -14 -40 -31 -48 -55 -7 -19 -19 -36 -28 -38 -10 -2 -36
15 -60 38 -23 23 -47 45 -52 48 -20 13 -103 117 -121 152 -12 23 -18 57 -18
100 0 92 22 258 41 305 9 22 18 60 21 85 2 24 13 56 25 71 l20 28 -27 45 c-15
25 -31 46 -36 46 -6 0 -10 5 -10 11 0 5 -13 24 -29 41 -16 17 -27 37 -24 43 2
7 -4 32 -15 56 -11 24 -32 76 -48 114 -27 67 -42 96 -132 250 -48 84 -148 189
-256 270 -43 33 -92 72 -108 88 -16 15 -35 27 -44 27 -8 0 -31 11 -52 25 -50
33 -155 75 -189 75 -37 0 -47 8 -71 56 -26 50 -109 126 -176 161 -49 25 -120
35 -183 26z m152 -35 c19 -20 28 -69 12 -62 -7 2 -22 -5 -32 -16 -18 -19 -102
-50 -154 -56 -42 -5 -63 13 -56 47 8 36 2 36 -38 -1 -41 -38 -46 -31 -10 15
32 41 81 74 127 86 43 11 136 3 151 -13z m80 -204 c41 -7 45 -20 11 -35 -13
-6 -27 -20 -29 -30 -5 -18 -4 -18 24 -2 16 10 29 20 29 24 0 11 117 30 147 24
15 -4 77 -30 136 -58 88 -42 104 -53 88 -59 -35 -12 -24 -28 20 -28 58 0 100
-23 160 -88 28 -31 69 -75 90 -98 38 -39 49 -64 29 -64 -11 0 -18 -5 -64 -45
-16 -14 -36 -25 -44 -25 -8 0 -21 -8 -28 -17 -26 -37 -26 -2 1 38 25 39 26 42
6 36 -25 -6 -36 6 -50 60 -12 43 -50 83 -80 83 -20 1 -51 23 -51 37 0 6 -16
14 -36 18 -31 5 -41 2 -66 -22 -55 -52 -92 -136 -152 -341 -53 -181 -84 -301
-100 -388 -8 -43 -15 -65 -15 -49 -1 53 -34 145 -52 145 -9 0 -19 7 -23 15 -3
8 -11 15 -18 15 -7 0 -25 11 -40 25 -23 22 -31 24 -47 13 -19 -12 -31 -48 -31
-96 l0 -26 -22 21 c-20 21 -20 23 -4 47 9 14 19 53 23 87 5 48 10 62 26 68 14
5 17 10 9 15 -7 4 -12 29 -12 57 0 27 -4 49 -8 49 -17 0 -39 -36 -55 -90 -9
-30 -34 -113 -57 -185 -22 -71 -40 -140 -40 -152 0 -38 -15 -34 -82 21 -47 39
-78 76 -112 135 -76 128 -75 119 -31 267 21 71 41 134 45 139 4 6 15 34 24 63
10 29 24 52 31 52 9 0 12 6 9 15 -4 8 -2 15 4 15 6 0 12 -6 15 -12 2 -7 10 0
17 17 15 33 96 115 114 115 6 0 27 14 46 32 32 29 33 32 15 39 -26 10 -24 11
75 24 88 12 119 47 58 63 -18 4 -34 15 -36 24 -5 27 28 30 133 12z m-574 -132
c-56 -40 -90 -80 -101 -121 -6 -23 -18 -45 -26 -48 -7 -3 -14 -10 -14 -15 0
-5 -9 -23 -20 -38 -52 -73 -110 -333 -119 -530 -7 -153 -24 -182 -29 -50 -5
122 33 354 77 470 12 30 21 62 21 72 0 9 17 54 39 100 47 102 123 176 181 177
10 0 7 -6 -9 -17z m29 -66 c0 -2 -7 -7 -16 -10 -8 -3 -12 -2 -9 4 6 10 25 14
25 6z m1325 -266 c4 -6 0 -22 -9 -35 -19 -28 -12 -97 10 -116 8 -6 14 -20 14
-31 0 -17 -2 -18 -15 -8 -13 11 -20 9 -40 -10 -23 -22 -25 -22 -50 -6 -16 10
-24 23 -21 32 3 8 1 14 -4 14 -5 0 -14 18 -20 40 -9 33 -8 44 6 64 32 49 112
83 129 56z m-469 -223 c-9 -48 -43 -97 -66 -97 -19 0 -20 2 -7 28 8 15 22 53
32 85 17 55 19 56 32 37 10 -14 13 -33 9 -53z m180 11 c-4 -23 -16 -69 -26
-102 -11 -34 -22 -78 -25 -98 -4 -24 -11 -38 -20 -38 -19 0 -19 26 -1 111 26
122 89 233 72 127z m-1126 -60 c28 -60 88 -159 109 -183 10 -11 22 -27 26 -35
8 -13 7 -13 -8 -1 -14 11 -17 11 -17 -1 0 -8 32 -42 71 -76 92 -79 187 -129
329 -174 66 -21 4 -19 -81 2 -89 23 -141 49 -232 117 -61 46 -84 54 -72 26 17
-43 23 -73 14 -73 -15 0 -10 -42 8 -62 14 -16 14 -18 1 -18 -17 0 -28 29 -28
75 0 28 -1 29 -14 9 -8 -11 -17 -41 -21 -67 -7 -47 -8 -48 -39 -45 -26 3 -31
7 -28 28 1 13 8 28 15 32 11 7 5 11 -9 6 -3 -2 -10 5 -15 15 -6 9 -15 14 -21
11 -14 -9 -28 17 -22 42 3 12 -1 26 -10 33 -19 16 -20 90 -5 221 6 47 12 99
14 115 4 42 4 45 10 45 2 0 13 -19 25 -42z m1498 -5 c2 -15 -2 -23 -11 -23 -8
0 -20 -7 -27 -15 -7 -8 -16 -15 -21 -15 -12 0 -21 38 -14 61 10 30 69 23 73
-8z m181 -217 c9 -11 10 -24 2 -53 -6 -21 -11 -61 -11 -89 0 -56 -23 -243 -40
-319 -24 -114 -99 -282 -187 -418 -64 -100 -179 -212 -355 -345 -23 -18 -81
-63 -128 -99 -47 -36 -114 -86 -150 -110 -122 -84 -162 -113 -209 -151 -55
-46 -257 -192 -265 -192 -6 0 -84 -46 -146 -85 -19 -13 -60 -36 -90 -52 -64
-35 -158 -89 -182 -106 -14 -9 -23 -6 -49 18 -67 64 -149 216 -273 507 -59
139 -77 195 -86 260 -7 46 -16 91 -21 101 -6 11 -6 17 1 17 11 0 14 -7 24 -53
4 -15 11 -25 16 -22 6 4 13 -2 17 -12 15 -40 123 -213 172 -276 58 -74 157
-157 228 -191 43 -21 49 -22 87 -9 42 15 385 165 420 185 11 6 92 50 180 98
89 47 217 123 284 168 97 64 131 82 159 82 32 0 47 11 132 95 104 102 148 166
225 332 44 95 119 298 168 453 11 36 26 68 34 73 14 8 19 32 28 125 4 40 2 52
-9 52 -7 0 -15 6 -18 13 -3 8 -10 6 -21 -8 l-16 -20 7 20 c15 47 39 51 72 11z
m-1504 -26 c3 -6 -1 -7 -9 -4 -18 7 -21 14 -7 14 6 0 13 -4 16 -10z m110 -85
l30 -26 -33 18 c-18 9 -45 28 -60 41 l-27 23 30 -15 c17 -8 44 -27 60 -41z
m1460 0 c1 -25 -18 -34 -30 -15 -6 10 16 52 24 44 2 -2 5 -15 6 -29z m-681
-10 c-8 -20 -79 -60 -154 -85 -50 -17 -94 -23 -185 -25 l-120 -3 100 8 c107 8
215 28 215 40 0 4 11 10 23 14 13 3 41 19 62 36 40 32 68 39 59 15z m513 -17
c-3 -7 -5 -2 -5 12 0 14 2 19 5 13 2 -7 2 -19 0 -25z m-1130 -54 c-5 -5 -69
16 -82 27 -5 5 12 2 38 -7 27 -9 46 -18 44 -20z m603 2 c-34 -33 -142 -77
-212 -86 -95 -12 -128 -12 -128 0 0 6 22 10 49 10 70 0 141 18 213 55 72 36
102 44 78 21z m-560 -16 c8 -5 11 -10 5 -10 -5 0 -17 5 -25 10 -8 5 -10 10 -5
10 6 0 17 -5 25 -10z m75 -20 c3 -6 -1 -7 -9 -4 -18 7 -21 14 -7 14 6 0 13 -4
16 -10z m105 -48 c0 -4 -21 -6 -47 -4 -76 5 -83 10 -15 11 34 0 62 -2 62 -7z
m-605 -52 c3 -11 13 -20 21 -20 7 0 19 9 26 20 7 11 16 20 19 20 4 0 5 -9 2
-20 -3 -12 0 -20 7 -20 10 0 10 -3 0 -15 -6 -8 -9 -18 -6 -23 7 -12 -163 -177
-172 -167 -4 4 1 12 11 19 17 14 25 32 8 21 -14 -8 -29 75 -19 110 7 26 71 94
90 95 4 0 10 -9 13 -20z m1160 -8 c-3 -3 -11 0 -18 7 -9 10 -8 11 6 5 10 -3
15 -9 12 -12z m215 -17 c-14 -8 -34 -14 -45 -14 -13 0 -7 5 15 13 47 18 61 18
30 1z m-133 -11 c-3 -3 -12 -4 -19 -1 -8 3 -5 6 6 6 11 1 17 -2 13 -5z m-1086
-23 c-14 -25 -241 -261 -252 -261 -28 0 10 44 207 232 55 53 59 56 45 29z m19
-132 c0 -5 -10 -19 -22 -31 -14 -14 -18 -23 -10 -26 7 -2 12 -9 12 -16 0 -23
37 -48 59 -41 17 5 21 2 21 -14 0 -11 6 -24 14 -28 7 -4 19 -19 26 -32 9 -18
14 -21 21 -10 11 19 19 7 12 -19 -3 -15 -13 -22 -29 -22 -32 0 -31 -24 1 -62
19 -22 24 -38 21 -57 -3 -14 -2 -33 4 -41 8 -12 10 -11 10 8 0 15 6 22 19 22
28 0 34 -27 14 -63 -23 -42 -32 -47 -64 -40 -15 3 -30 0 -33 -6 -11 -18 3 -48
25 -54 20 -5 20 -7 3 -32 -11 -17 -22 -24 -34 -20 -12 4 -30 -6 -54 -32 -35
-37 -32 -61 3 -29 19 17 31 21 31 9 0 -5 -14 -16 -31 -26 -24 -13 -35 -15 -45
-6 -20 17 -31 2 -16 -22 11 -17 9 -21 -15 -31 -41 -17 -63 -39 -63 -60 0 -10
-7 -21 -16 -25 -12 -4 -14 -14 -10 -34 3 -16 1 -29 -4 -29 -6 0 -10 7 -10 15
0 19 -17 19 -37 0 -38 -39 -47 -5 -59 220 -9 176 -7 306 5 338 5 13 5 30 0 39
-7 13 -2 26 21 51 16 19 30 41 30 48 0 8 9 20 20 27 11 7 20 20 20 30 0 9 9
23 20 30 11 6 17 18 14 26 -4 10 0 13 13 10 11 -3 27 4 40 18 21 23 73 35 73
17z m220 -94 c0 -14 -32 -65 -40 -65 -11 0 -13 30 -4 54 6 15 44 24 44 11z
m-40 -125 c0 -5 -4 -10 -10 -10 -5 0 -10 5 -10 10 0 6 5 10 10 10 6 0 10 -4
10 -10z m60 -110 c0 -24 -62 -20 -77 5 -10 17 -7 21 20 31 26 8 34 8 45 -5 6
-8 12 -22 12 -31z m-991 -184 c10 -54 -3 -84 -18 -43 -14 37 -15 129 0 105 5
-9 13 -37 18 -62z m2876 -42 c21 -9 42 -50 77 -158 22 -70 31 -122 38 -226 12
-179 12 -179 0 -160 -5 8 -10 25 -10 36 0 12 -9 28 -20 35 -21 15 -33 59 -51
192 -10 71 -18 96 -40 124 -16 19 -31 44 -35 55 -4 13 -12 18 -24 15 -19 -5
-30 10 -30 39 0 8 15 23 33 34 35 22 38 23 62 14z m199 -309 c35 -15 41 -35
10 -35 -21 0 -17 -31 6 -37 15 -4 20 -14 20 -38 0 -25 5 -34 21 -38 17 -5 20
-11 16 -28 -4 -13 -1 -29 5 -37 17 -20 18 -54 2 -79 -8 -12 -10 -24 -6 -27 7
-4 6 -98 -2 -181 -1 -16 -3 -79 -4 -139 -1 -60 -4 -107 -6 -105 -2 2 -7 78
-11 169 -6 172 -10 202 -31 235 -7 11 -24 53 -38 93 -20 57 -25 92 -25 167 0
52 1 95 3 95 2 0 20 -7 40 -15z m485 -44 c39 -17 97 -35 128 -41 54 -9 152
-64 153 -84 0 -4 13 -36 29 -70 45 -94 101 -235 117 -296 8 -30 14 -88 13
-130 -1 -94 -5 -83 -18 46 -8 88 -15 112 -51 185 -24 46 -47 87 -52 90 -5 3
-11 23 -15 45 -9 59 -38 101 -81 115 -20 7 -41 12 -45 11 -15 -4 -47 19 -47
33 0 15 -29 35 -51 35 -8 0 -8 -5 3 -17 8 -10 25 -47 37 -83 13 -36 33 -83 46
-105 29 -52 50 -120 70 -224 19 -102 20 -270 2 -294 -10 -15 -16 2 -36 108
-13 69 -28 125 -33 125 -4 0 -8 -11 -8 -24 0 -21 -25 -55 -34 -45 -15 20 -38
106 -42 159 -5 75 -17 118 -50 178 -13 24 -29 64 -35 90 -5 26 -18 56 -28 67
-10 11 -26 35 -35 53 -9 17 -23 32 -32 32 -8 0 -17 7 -20 15 -4 9 -19 15 -35
15 -25 0 -29 4 -29 28 l0 29 53 -8 c30 -5 86 -22 126 -38z m-202 33 c-3 -3
-12 -4 -19 -1 -8 3 -5 6 6 6 11 1 17 -2 13 -5z m43 -76 c0 -4 31 -74 69 -155
86 -185 98 -235 108 -445 4 -86 2 -122 -7 -133 -7 -8 -16 -13 -20 -10 -4 3
-11 62 -14 132 -10 197 -23 266 -72 368 -72 151 -115 261 -106 269 5 6 42 -17
42 -26z m-2620 -68 c-19 -11 -66 -31 -105 -46 -38 -15 -81 -33 -95 -41 -29
-15 -50 -17 -50 -4 0 5 26 17 58 27 31 10 91 33 132 51 83 36 115 43 60 13z
m3239 -188 c31 -61 75 -206 69 -224 -3 -7 -11 18 -20 53 -9 36 -33 101 -54
145 -21 43 -40 83 -42 88 -3 5 1 6 7 2 6 -4 24 -33 40 -64z m-815 2 c22 -8 20
-27 -3 -41 -16 -10 -20 -9 -23 5 -5 16 0 42 7 42 2 0 10 -3 19 -6z m1 -350
c-23 -17 -34 -2 -14 22 9 11 15 12 23 4 8 -8 6 -15 -9 -26z m5 -318 c0 -15
-18 -31 -26 -23 -7 7 7 37 17 37 5 0 9 -6 9 -14z m-2170 -751 c0 -27 -17 -42
-31 -28 -6 6 -6 19 2 36 14 31 29 26 29 -8z"/>
<path d="M4358 7753 c-27 -11 -38 -22 -43 -44 -4 -16 -11 -29 -16 -29 -17 0
-95 -172 -103 -226 -2 -11 -6 -26 -10 -32 -3 -6 -2 -13 4 -17 5 -3 15 7 22 22
7 15 20 39 30 52 10 13 18 30 18 37 0 26 64 149 92 178 l29 29 -6 -26 c-5 -20
-2 -29 17 -41 23 -15 163 -37 185 -29 18 7 24 33 8 33 -8 0 -24 10 -37 23 -13
12 -49 31 -81 41 -31 10 -55 21 -52 26 10 16 -21 17 -57 3z"/>
<path d="M4169 7543 c-17 -38 -37 -99 -45 -138 -8 -38 -17 -81 -20 -95 -10
-45 12 -8 35 60 13 36 31 83 41 105 21 47 40 107 40 123 0 31 -23 6 -51 -55z"/>
<path d="M4176 7381 c-4 -7 -5 -15 -2 -18 9 -9 19 4 14 18 -4 11 -6 11 -12 0z"/>
<path d="M3767 6909 c7 -7 15 -10 18 -7 3 3 -2 9 -12 12 -14 6 -15 5 -6 -5z"/>
<path d="M3660 6851 c0 -5 5 -13 10 -16 6 -3 10 -2 10 4 0 5 -4 13 -10 16 -5
3 -10 2 -10 -4z"/>
<path d="M3807 6213 c-10 -3 -17 -12 -15 -21 5 -24 29 -21 39 6 9 22 7 23 -24
15z"/>
<path d="M3900 6100 c0 -5 9 -10 21 -10 11 0 17 5 14 10 -3 6 -13 10 -21 10
-8 0 -14 -4 -14 -10z"/>
<path d="M4020 5965 c-11 -13 -10 -14 4 -9 9 3 16 10 16 15 0 13 -6 11 -20 -6z"/>
<path d="M6962 4980 c0 -19 2 -27 5 -17 2 9 2 25 0 35 -3 9 -5 1 -5 -18z"/>
</g>
</svg>
